USFL
nRows=109
nColumns=2
inDegrees=yes
endheader
time	med_gas_r	
3.22077	 63.006361	
3.29234	 62.991856	
3.36391	 62.965035	
3.43548	 62.963598	
3.50706	 62.987002	
3.57863	 63.070041	
3.6502	 63.038798	
3.72177	 62.973951	
3.79335	 62.978863	
3.86492	 63.022653	
3.93649	 62.852810	
4.00806	 62.992769	
4.07964	 63.044264	
4.15121	 62.829664	
4.22278	 63.090374	
4.29435	 62.267690	
4.36593	 62.366620	
4.4375	 62.200823	
4.50907	 61.867468	
4.58065	 61.402204	
4.65222	 61.597501	
4.72379	 61.508707	
4.79536	 61.672816	
4.86694	 61.528212	
4.93851	 61.625220	
5.01008	 61.616135	
5.08165	 61.660354	
5.15323	 61.646168	
5.2248	 61.603587	
5.29637	 61.703119	
5.36794	 61.779856	
5.43952	 61.829266	
5.51109	 61.696842	
5.58266	 59.322750	
5.65423	 57.660625	
5.72581	 56.491433	
5.79738	 55.745979	
5.86895	 55.628380	
5.94052	 56.010355	
6.0121	 55.908498	
6.08367	 56.038789	
6.15524	 55.932380	
6.22681	 55.762799	
6.29839	 55.633972	
6.36996	 55.049119	
6.44153	 55.376065	
6.5131	 55.333427	
6.58468	 55.500834	
6.65625	 55.540676	
6.72782	 55.468150	
6.7994	 55.666146	
6.87097	 55.657428	
6.94254	 55.429835	
7.01411	 55.519318	
7.08569	 55.536739	
7.15726	 55.286757	
7.22883	 55.381906	
7.3004	 55.451940	
7.37198	 55.288468	
7.44355	 55.391010	
7.51512	 55.401741	
7.58669	 55.206417	
7.65827	 55.377437	
7.72984	 55.346289	
7.80141	 55.268381	
7.87298	 55.202657	
7.94456	 55.036736	
8.01613	 54.983925	
8.0877	 54.886611	
8.15927	 54.926650	
8.23085	 55.007179	
8.30242	 55.007545	
8.37399	 54.997303	
8.44556	 55.086433	
8.51714	 55.208694	
8.58871	 55.470716	
8.66028	 55.472492	
8.73185	 55.588934	
8.80343	 55.676815	
8.875	 55.616481	
8.94657	 55.593125	
9.01815	 55.384630	
9.08972	 55.371777	
9.16129	 55.434127	
9.23286	 55.464702	
9.30444	 55.457240	
9.37601	 55.431601	
9.44758	 55.492926	
9.51915	 55.502307	
9.59073	 55.445382	
9.6623	 55.332918	
9.73387	 55.345708	
9.80544	 55.287509	
9.87702	 55.223158	
9.94859	 55.278057	
10.0202	 55.202104	
10.0917	 55.164055	
10.1633	 55.200853	
10.2349	 55.118800	
10.3065	 55.151812	
10.378	 56.304259	
10.4496	 56.072177	
10.5212	 56.219109	
10.5927	 56.042234	
10.6643	 55.702632	
10.7359	 57.936300	
10.8075	 59.344535	
10.879	 60.117353	
10.9506	 60.324596	
